<svg viewBox="0 0 64 64" fill="none" xmlns="http://www.w3.org/2000/svg" role="img" aria-label="MoodShelf">
  
  <path d="M32 22.5C26 18.8 19.5 18.4 11.8 20.4C10.7 20.7 10 21.7 10 22.8V43.3C10 44.8 11.4 45.9 12.8 45.6C19.4 44.1 25.7 44.6 32 47.8" stroke="currentColor" stroke-width="2.6" stroke-linecap="round" stroke-linejoin="round"></path>
  <path d="M32 22.5C38 18.8 44.5 18.4 52.2 20.4C53.3 20.7 54 21.7 54 22.8V43.3C54 44.8 52.6 45.9 51.2 45.6C44.6 44.1 38.3 44.6 32 47.8" stroke="currentColor" stroke-width="2.6" stroke-linecap="round" stroke-linejoin="round"></path>
  <path d="M32 23.5V47" stroke="currentColor" stroke-width="2.6" stroke-linecap="round"></path>
  
  <path d="M32 6C32 6 27.5 10.2 27.5 13.4C27.5 15.9 29.5 17.6 32 17.6C34.5 17.6 36.5 15.9 36.5 13.4C36.5 10.2 32 6 32 6Z" fill="#DCA94F"></path>
</svg>